<svg xmlns="http://www.w3.org/2000/svg" aria-hidden="true" focusable="false" data-prefix="fal" data-icon="spray-can" role="img" data-fa-i2svg="" width="512" height="512"><rect id="backgroundrect" width="100%" height="100%" x="0" y="0" fill="none" stroke="none"/><g class="currentLayer" style=""><title>Layer 1</title><path fill="#62b5e5" d="M224 128V32c0-17.67-14.33-32-32-32h-64c-17.67 0-32 14.33-32 32v96c-53.02 0-96 42.98-96 96v256c0 17.67 14.33 32 32 32h256c17.67 0 32-14.33 32-32V224c0-53.02-42.98-96-96-96zm-96-96h64v96h-64V32zm160 448H32V224c0-35.29 28.71-64 64-64h128c35.29 0 64 28.71 64 64v256zM160 240c-44.18 0-80 35.82-80 80s35.82 80 80 80 80-35.82 80-80-35.82-80-80-80zm0 128c-26.47 0-48-21.53-48-48s21.53-48 48-48 48 21.53 48 48-21.53 48-48 48zM488 80c13.25 0 24-10.75 24-24 0-13.26-10.75-24-24-24s-24 10.74-24 24c0 13.25 10.75 24 24 24zm0 48c-13.25 0-24 10.74-24 24 0 13.25 10.75 24 24 24s24-10.75 24-24c0-13.26-10.75-24-24-24zm-96-96c-13.25 0-24 10.74-24 24 0 13.25 10.75 24 24 24s24-10.75 24-24c0-13.26-10.75-24-24-24zm0 96c-13.25 0-24 10.74-24 24 0 13.25 10.75 24 24 24s24-10.75 24-24c0-13.26-10.75-24-24-24zm-96-96c-13.25 0-24 10.74-24 24 0 13.25 10.75 24 24 24s24-10.75 24-24c0-13.26-10.75-24-24-24zm192 192c-13.25 0-24 10.74-24 24 0 13.25 10.75 24 24 24s24-10.75 24-24c0-13.26-10.75-24-24-24z" id="svg_1" class="selected" fill-opacity="1"/></g></svg>