<svg xmlns="http://www.w3.org/2000/svg" aria-hidden="true" focusable="false" data-prefix="fal" data-icon="watch-fitness" role="img" data-fa-i2svg="" width="384" height="512" style=""><rect id="backgroundrect" width="100%" height="100%" x="0" y="0" fill="none" stroke="none"/><g class="currentLayer" style=""><title>Layer 1</title><path fill="#62b5e5" d="M247.12129871368407,169.3087012863159 c-15.76,0 -35.02,6.7 -56.42,27.74 c-21.4,-21.04 -40.66,-27.74 -56.42,-27.74 c-16.47,0 -29.11,7.3100000000000005 -36.38,13.22 c-28.27,22.95 -29.75,64.17 -4.45,89.04 l87.08,85.59 c5.61,5.52 14.73,5.53 20.36,0 l87.08,-85.59 c25.3,-24.87 23.81,-66.09 -4.46,-89.04 c-7.28,-5.91 -19.93,-13.22 -36.39,-13.22 zm18.41,79.44 L190.70129871368408,322.2987012863159 l-74.83,-73.55 c-11.77,-11.57 -11.19,-30.51 2.2,-41.38 c11.1,-9.02 27.15,-10.16 50.2,12.5 L190.70129871368408,241.9287012863159 l22.43,-22.05 c22.96,-22.57 39.01,-21.58 50.2,-12.49 c13.42,10.88 13.94,29.81 2.2,41.36 zM318.7012987136841,82.90870128631592 V33.29870128631592 c0,-17.67 -14.33,-32 -32,-32 H94.70129871368408 C77.03129871368408,1.298701286315918 62.70129871368408,15.628701286315918 62.70129871368408,33.29870128631592 v49.61 C26.181298713684082,90.32870128631592 -1.298701286315918,122.59870128631592 -1.298701286315918,161.29870128631592 v192 c0,38.7 27.48,70.97 64,78.39 V481.2987012863159 c0,17.67 14.33,32 32,32 h192 c17.67,0 32,-14.33 32,-32 v-49.61 c36.52,-7.41 64,-39.69 64,-78.39 V161.29870128631592 c0,-38.7 -27.48,-70.97 -64,-78.39 zM94.70129871368408,33.29870128631592 h192 v48 H94.70129871368408 V33.29870128631592 zm192,448 H94.70129871368408 v-48 h192 v48 zm64,-128 c0,26.47 -21.53,48 -48,48 H78.70129871368408 c-26.47,0 -48,-21.53 -48,-48 V161.29870128631592 c0,-26.47 21.53,-48 48,-48 h224 c26.47,0 48,21.53 48,48 v192 z" id="svg_1" class="selected" fill-opacity="1"/></g></svg>