<svg xmlns="http://www.w3.org/2000/svg" aria-hidden="true" focusable="false" data-prefix="fal" data-icon="capsules" role="img" data-fa-i2svg="" width="544" height="512"><rect id="backgroundrect" width="100%" height="100%" x="0" y="0" fill="none" stroke="none"/><g class="currentLayer" style=""><title>Layer 1</title><path fill="#62b5e5" d="M529.649350643158,297.44935064315797 L418.14935064315796,104.34935064315796 c-30.8,-53.2 -99,-71.5 -152.3,-40.8 c-21.2,12.2 -36.5,30.5 -45.8,51.3 C206.94935064315797,67.64935064315796 164.04935064315796,32.64935064315796 112.64935064315796,32.64935064315796 C50.84935064315796,32.64935064315796 0.649350643157959,82.84935064315796 0.649350643157959,144.64935064315796 v224 c0,61.8 50.2,112 112,112 s112,-50.2 112,-112 V214.84935064315795 c0.2,0.30000000000000004 0.2,0.6000000000000001 0.4,0.9 l111.5,193.1 c20.6,35.7 58.2,55.7 96.8,55.7 c18.9,0 38,-4.8 55.5,-14.9 c25.8,-14.9 44.2,-38.9 51.9,-67.7 c7.8,-28.7 3.8,-58.7 -11.1,-84.5 zM112.64935064315796,64.64935064315796 c44.1,0 80,35.9 80,80 v112 H32.64935064315796 V144.64935064315796 c0,-44.1 35.9,-80 80,-80 zm0,384 c-44.1,0 -80,-35.9 -80,-80 v-80 h160 v80 c0,44.1 -35.9,80 -80,80 zM281.84935064315795,91.14935064315796 c40.4,-23.3 88.2,-6.5 108.8,29.1 l47.6,82.4 l-137.9,79.6 l-47.7,-82.3 c-21.9,-38.1 -8.9,-86.9 29.2,-108.8 zm228.2,282.7 c-5.5,20.5 -18.7,37.7 -37.1,48.4 c-38,21.9 -86.8,8.8 -108.8,-29.1 l-47.9,-83 l137.9,-79.6 l47.9,83 c10.7,18.2 13.5,39.7 8,60.3 z" id="svg_1" class="selected" fill-opacity="1"/></g></svg>