<svg class="svg-inline--fa fa-capsules fa-w-18" aria-hidden="true" focusable="false" data-prefix="fad" data-icon="capsules" role="img" xmlns="http://www.w3.org/2000/svg" viewBox="0 0 576 512" data-fa-i2svg=""><g class="fa-group"><path class="fa-secondary" fill="currentColor" d="M112 32A112 112 0 0 0 0 144v112h224V144A112 112 0 0 0 112 32zm312.2 80.8a114.33 114.33 0 0 0-159.3-28.1c-3.12 2.18-6.07 4.51-8.9 6.94v179.67l47 67.1 187.38-131.06z"/><path class="fa-primary" fill="currentColor" d="M0 368a112 112 0 0 0 224 0V256H0zm555.3-67.9l-64.92-92.75L303 338.41l65 92.79a114.31 114.31 0 1 0 187.3-131.1z"/></g></svg>