<svg xmlns="http://www.w3.org/2000/svg" aria-hidden="true" focusable="false" data-prefix="fad" data-icon="map-marked-alt" role="img" data-fa-i2svg="" width="576" height="512"><rect id="backgroundrect" width="100%" height="100%" x="0" y="0" fill="none" stroke="none"/><g class="currentLayer" style=""><title>Layer 1</title><g class="fa-group selected" id="svg_1" fill-opacity="1" fill="#e2c7a6"><path class="fa-secondary" fill="#e2c7a6" d="M554.9945798492431,163.029158744812 L416.93457984924316,225.869158744812 v288 l139.88,-55.95 A32,32 0 0 0 576.9345798492432,428.209158744812 V177.869158744812 a16,16 0 0 0 -21.94,-14.84 zM21.05457984924317,217.869158744812 A32,32 0 0 0 0.9345798492431645,247.52915874481198 V497.869158744812 a16,16 0 0 0 21.94,14.86 L160.93457984924316,449.869158744812 V216.789158744812 a302.84,302.84 0 0 1 -21.25,-46.42 zM288.93457984924316,361.539158744812 a47.78,47.78 0 0 1 -36.51,-17 C232.76457984924318,321.379158744812 211.85457984924315,294.959158744812 192.93457984924316,267.869158744812 v182 l192,64 V267.869158744812 c-18.92,27.09 -39.82,53.52 -59.49,76.72 A47.8,47.8 0 0 1 288.93457984924316,361.539158744812 z" id="svg_2"/><path class="fa-primary" fill="#e2c7a6" d="M288.93457984924316,1.8691587448120117 a126,126 0 0 0 -126,126 c0,56.26 82.35,158.8 113.9,196 a15.77,15.77 0 0 0 24.2,0 C332.58457984924314,286.669158744812 414.93457984924316,184.129158744812 414.93457984924316,127.86915874481201 A126,126 0 0 0 288.93457984924316,1.8691587448120117 zm0,168 a42,42 0 1 1 42,-42 a42,42 0 0 1 -42,42 z" id="svg_3"/></g></g></svg>